# xmcd CD database file
#
# Track frame offsets:
#	150
#	16802
#	35329
#	54531
#	72283
#	92185
#	105587
#	121064
#	137641
#	157993
#	173870
#
# Disc length: 2455 seconds
#
# Revision: 0
# Processed by: cddbd v1.5.2PL0 Copyright (c) Steve Scherf et al.
# Submitted via: CDex 1.78
#
DISCID=8609950b
DTITLE=Mox Gowland - The blue album
DYEAR=1990
DGENRE=Blues
TTITLE0=Holler for more
TTITLE1=Two o'clock in the morning
TTITLE2=Telephone
TTITLE3=Rock'n roll save my soul
TTITLE4=Time has come
TTITLE5=Mind is gone
TTITLE6=Bad news
TTITLE7=No one could be sweeter
TTITLE8=Wait in the morning
TTITLE9=Tougher
TTITLE10=No use complaining
EXTD=YEAR: 1990
EXTT0=
EXTT1=
EXTT2=
EXTT3=
EXTT4=
EXTT5=
EXTT6=
EXTT7=
EXTT8=
EXTT9=
EXTT10=
PLAYORDER=
